<svg xmlns="http://www.w3.org/2000/svg" viewBox="0 0 32 32" width="32" height="32">
  <!-- Splash de salsa - mancha orgánica con brazos curvos -->
  <path d="
    M15 5 C16 5 17 8 18 10
    C19 8 22 4 24 6 C26 8 22 10 21 12
    C23 12 28 11 28 14 C28 17 24 15 22 16
    C24 18 28 21 26 23 C24 25 22 21 20 20
    C20 22 20 27 17 27 C14 27 15 23 14 20
    C12 22 9 26 7 24 C5 22 8 19 10 17
    C7 17 3 18 3 15 C3 12 7 13 10 13
    C8 11 5 8 7 6 C9 4 12 8 13 10
    C13 8 14 5 15 5 Z" fill="#E85D2C"/>
  <!-- Brillo -->
  <ellipse cx="13" cy="14" rx="3" ry="2.5" fill="white" opacity="0.18"/>
  <!-- Gotas sueltas -->
  <ellipse cx="4" cy="7" rx="1.8" ry="2.2" fill="#E85D2C" opacity="0.65" transform="rotate(-20 4 7)"/>
  <circle cx="27" cy="6" r="1.2" fill="#E85D2C" opacity="0.6"/>
  <circle cx="30" cy="17" r="1" fill="#E85D2C" opacity="0.5"/>
  <ellipse cx="4" cy="22" rx="1.5" ry="1.8" fill="#E85D2C" opacity="0.55"/>
  <circle cx="27" cy="27" r="0.8" fill="#E85D2C" opacity="0.45"/>
  <circle cx="11" cy="3" r="0.7" fill="#E85D2C" opacity="0.4"/>
  <circle cx="22" cy="29" r="0.9" fill="#E85D2C" opacity="0.4"/>
  <circle cx="1" cy="14" r="0.6" fill="#E85D2C" opacity="0.35"/>
</svg>
