<svg xmlns="http://www.w3.org/2000/svg" viewBox="0 0 32 32" width="32" height="32">
  <!-- Bowl con ingredientes asomando -->
  <!-- Bowl -->
  <path d="M3 16h26c0 0 0 1-1 4l-2 5c-.5 1.5-2 3-4 3H10c-2 0-3.5-1.5-4-3L4 20c-1-3-1-4-1-4z" fill="#88D888"/>
  <!-- Borde del bowl -->
  <ellipse cx="16" cy="16" rx="13" ry="3" fill="#70C870"/>
  <!-- Contenido asomando -->
  <circle cx="10" cy="13" r="2.5" fill="#E85D2C" opacity="0.7"/>
  <circle cx="16" cy="11" r="2" fill="#F0D68A" opacity="0.8"/>
  <circle cx="21" cy="13" r="2.2" fill="#22A860" opacity="0.6"/>
  <!-- Hoja de lechuga -->
  <path d="M13 10c-2-3-1-5 1-7 0 2 2 3 3 4" fill="#22A860" opacity="0.4"/>
  <!-- Brillo -->
  <ellipse cx="12" cy="20" rx="4" ry="2" fill="white" opacity="0.15"/>
  <!-- Salpicadura decorativa -->
  <circle cx="7" cy="14" r="0.6" fill="#F0D68A" opacity="0.4"/>
  <circle cx="25" cy="14" r="0.5" fill="#E85D2C" opacity="0.3"/>
</svg>
