<svg xmlns="http://www.w3.org/2000/svg" viewBox="0 0 32 32" width="32" height="32">
  <!-- Olla con vapor y cuchara -->
  <!-- Cuerpo de la olla -->
  <path d="M5 15h22v0c0 0 0 1 0 1l-2 9c-.3 1.5-1.5 2-3 2H10c-1.5 0-2.7-.5-3-2L5 16v-1z" fill="#88C4A8"/>
  <!-- Borde/tapa -->
  <rect x="4" y="13" width="24" height="3" rx="1.5" fill="#6BAF8E"/>
  <!-- Asas -->
  <rect x="1" y="17" width="4" height="3" rx="1.5" fill="#6BAF8E" opacity="0.7"/>
  <rect x="27" y="17" width="4" height="3" rx="1.5" fill="#6BAF8E" opacity="0.7"/>
  <!-- Cuchara asomando -->
  <path d="M22 14c1-4 2-7 2-8.5" fill="none" stroke="#D4A84A" stroke-width="1.5" stroke-linecap="round"/>
  <ellipse cx="24" cy="5" rx="2" ry="1.2" fill="#E8C87A"/>
  <!-- Brillo -->
  <ellipse cx="12" cy="19" rx="4" ry="2" fill="white" opacity="0.15"/>
  <!-- Vapor -->
  <path d="M10 10c0-2.5 1.5-3 1-5" fill="none" stroke="#FFAD7D" stroke-width="1" stroke-linecap="round" opacity="0.5"/>
  <path d="M15 9c0-2 1-3 .5-5" fill="none" stroke="#FFAD7D" stroke-width="1.2" stroke-linecap="round" opacity="0.45"/>
  <path d="M20 10c0-2.5 1.5-3 1-5" fill="none" stroke="#FFAD7D" stroke-width="1" stroke-linecap="round" opacity="0.35"/>
</svg>
