<svg xmlns="http://www.w3.org/2000/svg" viewBox="0 0 32 32" width="32" height="32">
  <!-- Taza humeante -->
  <!-- Cuerpo de la taza -->
  <path d="M5 12h18v11c0 3-2 5-5 5H10c-3 0-5-2-5-5V12z" fill="#88B8D8"/>
  <!-- Asa -->
  <path d="M23 15c3 0 5 1.5 5 4s-2 4-5 4" fill="none" stroke="#6A9AB8" stroke-width="2" stroke-linecap="round"/>
  <!-- Brillo -->
  <ellipse cx="12" cy="18" rx="4" ry="3" fill="white" opacity="0.2"/>
  <!-- Contenido (café/chocolate) -->
  <ellipse cx="14" cy="13" rx="8" ry="2" fill="#6A9AB8" opacity="0.4"/>
  <!-- Vapor espiral -->
  <path d="M10 9c0-1.5 1.5-2 1.5-3.5S10 3 10 2" fill="none" stroke="#FFAD7D" stroke-width="1.2" stroke-linecap="round" opacity="0.5"/>
  <path d="M15 8c0-1.5 1.5-2.5 1.5-4S15 1 15 0" fill="none" stroke="#FFAD7D" stroke-width="1.5" stroke-linecap="round" opacity="0.45"/>
  <path d="M20 9c0-1.5 1.5-2 1.5-3.5S20 3 20 2" fill="none" stroke="#FFAD7D" stroke-width="1" stroke-linecap="round" opacity="0.35"/>
</svg>
