<svg width="240" height="240" viewBox="0 0 240 240" fill="none" xmlns="http://www.w3.org/2000/svg">
  <!-- TM5 (left, smaller) -->
  <rect x="55" y="95" width="48" height="42" rx="6" fill="#D6D3D1"/>
  <rect x="59" y="90" width="40" height="10" rx="5" fill="#A8A29E"/>
  <!-- TM5 handle -->
  <rect x="103" y="107" width="12" height="6" rx="3" fill="#A8A29E"/>
  <!-- TM5 label -->
  <text x="79" y="122" font-family="Inter, sans-serif" font-size="10" font-weight="600" fill="#78716C" text-anchor="middle">TM5</text>
  <!-- TM5 vapor -->
  <path d="M72 82 Q75 68 78 82" stroke="#D6D3D1" stroke-width="2" stroke-linecap="round" fill="none" opacity="0.5"/>
  <path d="M80 78 Q83 65 86 78" stroke="#D6D3D1" stroke-width="1.5" stroke-linecap="round" fill="none" opacity="0.4"/>

  <!-- TM6 (right, slightly larger) -->
  <rect x="135" y="88" width="52" height="48" rx="7" fill="#D6D3D1"/>
  <rect x="139" y="82" width="44" height="12" rx="6" fill="#A8A29E"/>
  <!-- TM6 handle -->
  <rect x="187" y="102" width="14" height="7" rx="3.5" fill="#A8A29E"/>
  <!-- TM6 label -->
  <text x="161" y="118" font-family="Inter, sans-serif" font-size="10" font-weight="600" fill="#78716C" text-anchor="middle">TM6</text>
  <!-- TM6 vapor -->
  <path d="M152 74 Q156 56 160 74" stroke="#D6D3D1" stroke-width="2" stroke-linecap="round" fill="none" opacity="0.5"/>
  <path d="M162 70 Q166 52 170 70" stroke="#D6D3D1" stroke-width="1.5" stroke-linecap="round" fill="none" opacity="0.4"/>

  <!-- Check circle (between both, above) -->
  <circle cx="120" cy="62" r="18" fill="#E85D2C"/>
  <polyline points="111,62 117,68 129,56" stroke="white" stroke-width="3" stroke-linecap="round" stroke-linejoin="round" fill="none"/>

  <!-- Base line -->
  <rect x="45" y="140" width="150" height="3" rx="1.5" fill="#F5F5F4"/>

  <!-- Decorative dots -->
  <circle cx="42" cy="110" r="3" fill="#FFC9A8" opacity="0.3"/>
  <circle cx="205" cy="100" r="2.5" fill="#FFAD7D" opacity="0.3"/>
  <circle cx="120" cy="155" r="2" fill="#D6D3D1" opacity="0.3"/>
</svg>
