<svg width="240" height="240" viewBox="0 0 240 240" fill="none" xmlns="http://www.w3.org/2000/svg">
  <!-- Background: transparent -->

  <!-- Vapor curves (decorative) -->
  <path d="M105 65 Q110 45 115 65 Q120 85 125 65" stroke="#FFC9A8" stroke-width="3" stroke-linecap="round" fill="none" opacity="0.5"/>
  <path d="M115 55 Q120 30 125 55 Q130 80 135 55" stroke="#FFC9A8" stroke-width="2.5" stroke-linecap="round" fill="none" opacity="0.35"/>
  <path d="M95 60 Q100 40 105 60" stroke="#FFC9A8" stroke-width="2" stroke-linecap="round" fill="none" opacity="0.4"/>

  <!-- Thermomix pot -->
  <rect x="88" y="80" width="64" height="55" rx="8" fill="#E85D2C"/>
  <rect x="92" y="75" width="56" height="12" rx="6" fill="#C44A1F"/>
  <!-- Pot handle -->
  <rect x="152" y="95" width="18" height="8" rx="4" fill="#C44A1F"/>
  <!-- Pot detail -->
  <circle cx="120" cy="107" r="12" fill="#FF8C5A" opacity="0.4"/>

  <!-- Person (abstract, right side) -->
  <!-- Head -->
  <circle cx="175" cy="100" r="16" fill="#F5D0B0"/>
  <!-- Body -->
  <rect x="163" y="116" width="24" height="40" rx="12" fill="#22A860"/>
  <!-- Arm reaching toward pot -->
  <path d="M163 125 Q145 118 152 110" stroke="#F5D0B0" stroke-width="7" stroke-linecap="round" fill="none"/>
  <!-- Other arm welcoming -->
  <path d="M187 125 Q205 110 200 100" stroke="#F5D0B0" stroke-width="7" stroke-linecap="round" fill="none"/>

  <!-- Small hearts floating -->
  <path d="M70 90 C70 85 77 85 77 90 C77 95 70 100 70 100 C70 100 63 95 63 90 C63 85 70 85 70 90Z" fill="#E85D2C" opacity="0.5"/>
  <path d="M185 70 C185 67 189 67 189 70 C189 73 185 76 185 76 C185 76 181 73 181 70 C181 67 185 67 185 70Z" fill="#22A860" opacity="0.5"/>
  <path d="M145 50 C145 47.5 148 47.5 148 50 C148 52.5 145 55 145 55 C145 55 142 52.5 142 50 C142 47.5 145 47.5 145 50Z" fill="#E85D2C" opacity="0.35"/>

  <!-- Decorative circles -->
  <circle cx="60" cy="130" r="4" fill="#FFC9A8" opacity="0.3"/>
  <circle cx="200" cy="140" r="3" fill="#A3E4BD" opacity="0.3"/>
  <circle cx="80" cy="155" r="2.5" fill="#FFAD7D" opacity="0.25"/>

  <!-- Ground/base line -->
  <rect x="50" y="158" width="140" height="4" rx="2" fill="#F5F5F4"/>
</svg>
