<svg width="240" height="240" viewBox="0 0 240 240" fill="none" xmlns="http://www.w3.org/2000/svg">
  <!-- Empty favorites: corazón grande con olla de Vapora -->
  <!-- Corazón grande de fondo -->
  <path d="M120 190 C120 190 55 145 55 100 C55 72 78 58 100 68 C110 73 117 82 120 90 C123 82 130 73 140 68 C162 58 185 72 185 100 C185 145 120 190 120 190Z" fill="#FFE0CC" opacity="0.5"/>
  <path d="M120 180 C120 180 65 140 65 100 C65 76 84 64 103 72 C112 76 118 84 120 90 C122 84 128 76 137 72 C156 64 175 76 175 100 C175 140 120 180 120 180Z" fill="#FFAD7D" opacity="0.3"/>

  <!-- Olla de Vapora centrada -->
  <!-- Cuerpo -->
  <rect x="88" y="108" width="64" height="42" rx="8" fill="#E85D2C"/>
  <!-- Tapa/borde -->
  <rect x="82" y="102" width="76" height="10" rx="5" fill="#C44A1F"/>
  <!-- Asas -->
  <rect x="72" y="120" width="14" height="7" rx="3.5" fill="#C44A1F" opacity="0.7"/>
  <rect x="154" y="120" width="14" height="7" rx="3.5" fill="#C44A1F" opacity="0.7"/>
  <!-- Brillo -->
  <ellipse cx="108" cy="125" rx="12" ry="8" fill="white" opacity="0.12"/>

  <!-- Vapor en forma de corazoncitos -->
  <path d="M108 94 C108 94 104 90 104 87 C104 84 106 83 108 84 C110 83 112 84 112 87 C112 90 108 94 108 94Z" fill="#FFAD7D" opacity="0.5"/>
  <path d="M120 86 C120 86 117 83 117 81 C117 78.5 118.5 78 120 78.5 C121.5 78 123 78.5 123 81 C123 83 120 86 120 86Z" fill="#FF8C5A" opacity="0.45"/>
  <path d="M132 92 C132 92 129 89 129 87 C129 84.5 130.5 84 132 84.5 C133.5 84 135 84.5 135 87 C135 89 132 92 132 92Z" fill="#FFAD7D" opacity="0.4"/>

  <!-- Partículas decorativas -->
  <circle cx="60" cy="85" r="4" fill="#FFE0CC" opacity="0.5"/>
  <circle cx="180" cy="80" r="3" fill="#FFE0CC" opacity="0.4"/>
  <circle cx="50" cy="130" r="3" fill="#FFAD7D" opacity="0.3"/>
  <circle cx="190" cy="140" r="3.5" fill="#FFE0CC" opacity="0.35"/>
</svg>
