<svg width="240" height="240" viewBox="0 0 240 240" fill="none" xmlns="http://www.w3.org/2000/svg">
  <!-- Open folder -->
  <rect x="70" y="90" width="100" height="65" rx="8" fill="#E7E5E4"/>
  <!-- Folder tab -->
  <path d="M78 90 L78 78 Q78 74 82 74 L108 74 Q112 74 114 78 L118 86 Q120 90 124 90" fill="#D6D3D1"/>
  <!-- Folder opening (top flap, folded back) -->
  <path d="M70 90 Q70 84 76 82 L164 82 Q170 84 170 90" fill="#D6D3D1" opacity="0.5"/>

  <!-- Ghost recipe cards inside (fading) -->
  <rect x="85" y="100" width="70" height="14" rx="4" fill="#F5F5F4" opacity="0.6"/>
  <rect x="85" y="118" width="70" height="14" rx="4" fill="#F5F5F4" opacity="0.35"/>
  <rect x="85" y="136" width="70" height="14" rx="4" fill="#F5F5F4" opacity="0.15"/>

  <!-- "0" label -->
  <circle cx="180" cy="85" r="14" fill="#A8A29E" opacity="0.2"/>
  <text x="180" y="90" font-family="Inter, sans-serif" font-size="14" font-weight="600" fill="#A8A29E" text-anchor="middle">0</text>

  <!-- Decorative -->
  <circle cx="55" cy="120" r="3" fill="#E7E5E4" opacity="0.4"/>
  <circle cx="195" cy="130" r="2.5" fill="#E7E5E4" opacity="0.3"/>
  <circle cx="65" cy="80" r="2" fill="#D6D3D1" opacity="0.3"/>
</svg>
