<svg width="240" height="240" viewBox="0 0 240 240" fill="none" xmlns="http://www.w3.org/2000/svg">
  <!-- Large dashed heart (expectant, empty) -->
  <path d="M120 155 C120 155 80 125 80 100 C80 82 95 75 108 80 C114 83 118 88 120 92 C122 88 126 83 132 80 C145 75 160 82 160 100 C160 125 120 155 120 155Z"
    stroke="#FFAD7D" stroke-width="3" stroke-dasharray="8 6" fill="none" opacity="0.7"/>

  <!-- Small filled heart inside (subtle) -->
  <path d="M120 130 C120 130 108 120 108 112 C108 106 113 103 117 105 C119 106 120 108 120 108 C120 108 121 106 123 105 C127 103 132 106 132 112 C132 120 120 130 120 130Z"
    fill="#FFC9A8" opacity="0.4"/>

  <!-- Bowl/plate below -->
  <ellipse cx="120" cy="178" rx="35" ry="8" fill="#E7E5E4"/>
  <path d="M85 175 Q85 165 120 165 Q155 165 155 175" stroke="#D6D3D1" stroke-width="2" fill="none"/>
  <!-- Utensils crossed -->
  <line x1="105" y1="160" x2="95" y2="145" stroke="#D6D3D1" stroke-width="2.5" stroke-linecap="round"/>
  <line x1="135" y1="160" x2="145" y2="145" stroke="#D6D3D1" stroke-width="2.5" stroke-linecap="round"/>

  <!-- Decorative particles -->
  <circle cx="70" cy="80" r="3" fill="#FFC9A8" opacity="0.3"/>
  <circle cx="170" cy="75" r="4" fill="#FFE4D4" opacity="0.35"/>
  <circle cx="60" cy="130" r="2.5" fill="#FFAD7D" opacity="0.25"/>
  <circle cx="180" cy="135" r="3" fill="#FFE4D4" opacity="0.3"/>
  <circle cx="90" cy="60" r="2" fill="#FFC9A8" opacity="0.2"/>
  <circle cx="155" cy="55" r="2.5" fill="#FFAD7D" opacity="0.2"/>
</svg>
