<svg xmlns="http://www.w3.org/2000/svg" viewBox="0 0 100 100" width="100" height="100">
  <defs>
    <linearGradient id="fi-grad" x1="0" y1="1" x2="0" y2="0">
      <stop offset="0%" stop-color="#E85D2C"/>
      <stop offset="100%" stop-color="#FF8C5A"/>
    </linearGradient>
  </defs>
  <rect x="16" y="48" width="68" height="38" rx="8" fill="url(#fi-grad)"/>
  <rect x="12" y="42" width="76" height="10" rx="5" fill="#E85D2C"/>
  <rect x="4" y="56" width="14" height="7" rx="3.5" fill="#C44A1F"/>
  <rect x="82" y="56" width="14" height="7" rx="3.5" fill="#C44A1F"/>
  <path d="M34 38 C34 28, 42 28, 42 18 C42 8, 34 8, 34 0" fill="none" stroke="#FF8C5A" stroke-width="3" stroke-linecap="round" opacity="0.6"/>
  <path d="M50 36 C50 24, 58 24, 58 12 C58 2, 50 2, 50 -6" fill="none" stroke="#FFAD7D" stroke-width="3" stroke-linecap="round" opacity="0.45"/>
  <path d="M66 38 C66 28, 74 28, 74 18 C74 8, 66 8, 66 0" fill="none" stroke="#FFC9A8" stroke-width="2.5" stroke-linecap="round" opacity="0.3"/>
</svg>
